<mxfile host="app.diagrams.net" modified="2020-09-30T01:05:21.763Z" agent="5.0 (Windows NT 10.0; Win64; x64) AppleWebKit/537.36 (KHTML, like Gecko) Chrome/85.0.4183.121 Safari/537.36" etag="r7LWYnc8jwIj8n4Lk_Vv" version="13.7.6" type="github">
  <diagram name="Page-1" id="16e2658f-23c8-b752-8be9-c03fbebb8bbe">
    <mxGraphModel dx="865" dy="443" grid="1" gridSize="10" guides="1" tooltips="1" connect="1" arrows="1" fold="1" page="1" pageScale="1" pageWidth="1100" pageHeight="850" background="#ffffff" math="1" shadow="0">
      <root>
        <mxCell id="0" />
        <mxCell id="1" parent="0" />
        <mxCell id="aHZwfYBZbHW1-M8nTYV0-1" value="" style="pointerEvents=1;verticalLabelPosition=bottom;shadow=0;dashed=0;align=center;html=1;verticalAlign=top;shape=mxgraph.electrical.signal_sources.dc_source_3;" parent="1" vertex="1">
          <mxGeometry x="140" y="300" width="60" height="60" as="geometry" />
        </mxCell>
        <mxCell id="aHZwfYBZbHW1-M8nTYV0-4" value="" style="endArrow=none;html=1;strokeWidth=1;" parent="1" edge="1">
          <mxGeometry width="100" relative="1" as="geometry">
            <mxPoint x="170" y="300" as="sourcePoint" />
            <mxPoint x="170" y="230" as="targetPoint" />
            <Array as="points">
              <mxPoint x="170" y="230" />
            </Array>
          </mxGeometry>
        </mxCell>
        <mxCell id="aHZwfYBZbHW1-M8nTYV0-5" value="" style="endArrow=none;html=1;strokeWidth=1;" parent="1" edge="1">
          <mxGeometry width="100" relative="1" as="geometry">
            <mxPoint x="170" y="230" as="sourcePoint" />
            <mxPoint x="240" y="230" as="targetPoint" />
          </mxGeometry>
        </mxCell>
        <mxCell id="aHZwfYBZbHW1-M8nTYV0-6" value="" style="pointerEvents=1;verticalLabelPosition=bottom;shadow=0;dashed=0;align=center;html=1;verticalAlign=top;shape=mxgraph.electrical.resistors.resistor_2;" parent="1" vertex="1">
          <mxGeometry x="230" y="220" width="100" height="20" as="geometry" />
        </mxCell>
        <mxCell id="aHZwfYBZbHW1-M8nTYV0-9" value="" style="endArrow=none;html=1;strokeWidth=1;" parent="1" edge="1">
          <mxGeometry width="100" relative="1" as="geometry">
            <mxPoint x="400" y="229.83" as="sourcePoint" />
            <mxPoint x="400" y="290" as="targetPoint" />
          </mxGeometry>
        </mxCell>
        <mxCell id="aHZwfYBZbHW1-M8nTYV0-10" value="" style="pointerEvents=1;verticalLabelPosition=bottom;shadow=0;dashed=0;align=center;html=1;verticalAlign=top;shape=mxgraph.electrical.resistors.resistor_2;rotation=90;" parent="1" vertex="1">
          <mxGeometry x="350" y="330" width="100" height="20" as="geometry" />
        </mxCell>
        <mxCell id="aHZwfYBZbHW1-M8nTYV0-11" value="" style="endArrow=none;html=1;strokeWidth=1;" parent="1" edge="1">
          <mxGeometry width="100" relative="1" as="geometry">
            <mxPoint x="330" y="229.58" as="sourcePoint" />
            <mxPoint x="400" y="229.58" as="targetPoint" />
          </mxGeometry>
        </mxCell>
        <mxCell id="aHZwfYBZbHW1-M8nTYV0-12" value="" style="endArrow=none;html=1;strokeWidth=1;" parent="1" edge="1">
          <mxGeometry width="100" relative="1" as="geometry">
            <mxPoint x="400" y="400" as="sourcePoint" />
            <mxPoint x="290" y="400" as="targetPoint" />
          </mxGeometry>
        </mxCell>
        <mxCell id="aHZwfYBZbHW1-M8nTYV0-13" value="" style="endArrow=none;html=1;strokeWidth=1;" parent="1" edge="1">
          <mxGeometry width="100" relative="1" as="geometry">
            <mxPoint x="399.58000000000004" y="380" as="sourcePoint" />
            <mxPoint x="399.58000000000004" y="400" as="targetPoint" />
          </mxGeometry>
        </mxCell>
        <mxCell id="aHZwfYBZbHW1-M8nTYV0-14" value="" style="endArrow=none;html=1;strokeWidth=1;" parent="1" edge="1">
          <mxGeometry width="100" relative="1" as="geometry">
            <mxPoint x="170" y="400" as="sourcePoint" />
            <mxPoint x="290" y="400" as="targetPoint" />
          </mxGeometry>
        </mxCell>
        <mxCell id="aHZwfYBZbHW1-M8nTYV0-15" value="" style="endArrow=none;html=1;strokeWidth=1;" parent="1" edge="1">
          <mxGeometry width="100" relative="1" as="geometry">
            <mxPoint x="169.57999999999998" y="360" as="sourcePoint" />
            <mxPoint x="170" y="400" as="targetPoint" />
          </mxGeometry>
        </mxCell>
        <mxCell id="aHZwfYBZbHW1-M8nTYV0-16" value="" style="endArrow=none;html=1;strokeWidth=1;" parent="1" target="aHZwfYBZbHW1-M8nTYV0-17" edge="1">
          <mxGeometry width="100" relative="1" as="geometry">
            <mxPoint x="400" y="229.57999999999998" as="sourcePoint" />
            <mxPoint x="500" y="229.57999999999998" as="targetPoint" />
          </mxGeometry>
        </mxCell>
        <mxCell id="aHZwfYBZbHW1-M8nTYV0-17" value="" style="pointerEvents=1;verticalLabelPosition=bottom;shadow=0;dashed=0;align=center;html=1;verticalAlign=top;shape=mxgraph.electrical.resistors.resistor_2;" parent="1" vertex="1">
          <mxGeometry x="450" y="219.57999999999993" width="100" height="20" as="geometry" />
        </mxCell>
        <mxCell id="aHZwfYBZbHW1-M8nTYV0-18" value="" style="endArrow=none;html=1;strokeWidth=1;" parent="1" edge="1">
          <mxGeometry width="100" relative="1" as="geometry">
            <mxPoint x="540" y="229.46" as="sourcePoint" />
            <mxPoint x="640" y="229.46" as="targetPoint" />
          </mxGeometry>
        </mxCell>
        <mxCell id="aHZwfYBZbHW1-M8nTYV0-19" value="" style="endArrow=none;html=1;strokeWidth=1;" parent="1" target="aHZwfYBZbHW1-M8nTYV0-20" edge="1">
          <mxGeometry width="100" relative="1" as="geometry">
            <mxPoint x="640" y="230" as="sourcePoint" />
            <mxPoint x="640" y="300" as="targetPoint" />
          </mxGeometry>
        </mxCell>
        <mxCell id="aHZwfYBZbHW1-M8nTYV0-20" value="" style="pointerEvents=1;verticalLabelPosition=bottom;shadow=0;dashed=0;align=center;html=1;verticalAlign=top;shape=mxgraph.electrical.signal_sources.dc_source_2;rotation=-90;" parent="1" vertex="1">
          <mxGeometry x="610" y="270" width="60" height="60" as="geometry" />
        </mxCell>
        <mxCell id="aHZwfYBZbHW1-M8nTYV0-21" value="" style="endArrow=none;html=1;strokeWidth=1;" parent="1" edge="1">
          <mxGeometry width="100" relative="1" as="geometry">
            <mxPoint x="390" y="400" as="sourcePoint" />
            <mxPoint x="640" y="400" as="targetPoint" />
          </mxGeometry>
        </mxCell>
        <mxCell id="aHZwfYBZbHW1-M8nTYV0-22" value="" style="endArrow=none;html=1;strokeWidth=1;exitX=0;exitY=0.5;exitDx=0;exitDy=0;exitPerimeter=0;" parent="1" source="aHZwfYBZbHW1-M8nTYV0-20" edge="1">
          <mxGeometry width="100" relative="1" as="geometry">
            <mxPoint x="639.58" y="340" as="sourcePoint" />
            <mxPoint x="639.58" y="400" as="targetPoint" />
          </mxGeometry>
        </mxCell>
        <mxCell id="aHZwfYBZbHW1-M8nTYV0-23" value="" style="endArrow=none;html=1;strokeWidth=1;" parent="1" edge="1">
          <mxGeometry width="100" relative="1" as="geometry">
            <mxPoint x="170" y="240" as="sourcePoint" />
            <mxPoint x="170" y="80" as="targetPoint" />
          </mxGeometry>
        </mxCell>
        <mxCell id="aHZwfYBZbHW1-M8nTYV0-24" value="" style="endArrow=none;html=1;strokeWidth=1;" parent="1" target="aHZwfYBZbHW1-M8nTYV0-25" edge="1">
          <mxGeometry width="100" relative="1" as="geometry">
            <mxPoint x="170" y="80" as="sourcePoint" />
            <mxPoint x="270" y="80" as="targetPoint" />
          </mxGeometry>
        </mxCell>
        <mxCell id="aHZwfYBZbHW1-M8nTYV0-25" value="" style="pointerEvents=1;verticalLabelPosition=bottom;shadow=0;dashed=0;align=center;html=1;verticalAlign=top;shape=mxgraph.electrical.signal_sources.dependent_source_3;rotation=-90;" parent="1" vertex="1">
          <mxGeometry x="240" y="50" width="60" height="60" as="geometry" />
        </mxCell>
        <mxCell id="aHZwfYBZbHW1-M8nTYV0-26" value="" style="endArrow=none;html=1;strokeWidth=1;" parent="1" edge="1">
          <mxGeometry width="100" relative="1" as="geometry">
            <mxPoint x="300" y="79.58000000000001" as="sourcePoint" />
            <mxPoint x="640" y="80" as="targetPoint" />
          </mxGeometry>
        </mxCell>
        <mxCell id="aHZwfYBZbHW1-M8nTYV0-27" value="" style="endArrow=none;html=1;strokeWidth=1;" parent="1" edge="1">
          <mxGeometry width="100" relative="1" as="geometry">
            <mxPoint x="640" y="79.58000000000001" as="sourcePoint" />
            <mxPoint x="640" y="230" as="targetPoint" />
          </mxGeometry>
        </mxCell>
        <mxCell id="aHZwfYBZbHW1-M8nTYV0-28" value="2" style="text;html=1;strokeColor=none;fillColor=none;align=center;verticalAlign=middle;whiteSpace=wrap;rounded=0;" parent="1" vertex="1">
          <mxGeometry x="260" y="199.58" width="40" height="20" as="geometry" />
        </mxCell>
        <mxCell id="aHZwfYBZbHW1-M8nTYV0-30" value="4" style="text;html=1;strokeColor=none;fillColor=none;align=center;verticalAlign=middle;whiteSpace=wrap;rounded=0;" parent="1" vertex="1">
          <mxGeometry x="480" y="199.58" width="40" height="20" as="geometry" />
        </mxCell>
        <mxCell id="aHZwfYBZbHW1-M8nTYV0-31" value="2" style="text;html=1;strokeColor=none;fillColor=none;align=center;verticalAlign=middle;whiteSpace=wrap;rounded=0;" parent="1" vertex="1">
          <mxGeometry x="350" y="330" width="40" height="20" as="geometry" />
        </mxCell>
        <mxCell id="aHZwfYBZbHW1-M8nTYV0-32" value="Vfd 3Ixv" style="text;html=1;strokeColor=none;fillColor=none;align=center;verticalAlign=middle;whiteSpace=wrap;rounded=0;" parent="1" vertex="1">
          <mxGeometry x="240" y="20" width="60" height="20" as="geometry" />
        </mxCell>
        <mxCell id="aHZwfYBZbHW1-M8nTYV0-34" value="12V&lt;br&gt;" style="text;html=1;strokeColor=none;fillColor=none;align=center;verticalAlign=middle;whiteSpace=wrap;rounded=0;" parent="1" vertex="1">
          <mxGeometry x="100" y="320" width="40" height="20" as="geometry" />
        </mxCell>
        <mxCell id="aHZwfYBZbHW1-M8nTYV0-35" value="1A" style="text;html=1;strokeColor=none;fillColor=none;align=center;verticalAlign=middle;whiteSpace=wrap;rounded=0;" parent="1" vertex="1">
          <mxGeometry x="670" y="290.00000000000006" width="40" height="20" as="geometry" />
        </mxCell>
        <mxCell id="aHZwfYBZbHW1-M8nTYV0-2" value="$$\Omega$$" style="text;html=1;spacing=5;spacingTop=-10;whiteSpace=wrap;overflow=hidden;fillColor=none;strokeColor=none;shadow=0;rounded=0;verticalAlign=middle" vertex="1" parent="1">
          <mxGeometry x="500" y="195.16000000000003" width="20" height="24.42" as="geometry" />
        </mxCell>
        <mxCell id="aHZwfYBZbHW1-M8nTYV0-3" value="$$\Omega$$" style="text;html=1;spacing=5;spacingTop=-10;whiteSpace=wrap;overflow=hidden;fillColor=none;strokeColor=none;shadow=0;rounded=0;verticalAlign=middle" vertex="1" parent="1">
          <mxGeometry x="280" y="195.16000000000003" width="20" height="24.42" as="geometry" />
        </mxCell>
        <mxCell id="aHZwfYBZbHW1-M8nTYV0-7" value="$$\Omega$$" style="text;html=1;spacing=5;spacingTop=-10;whiteSpace=wrap;overflow=hidden;fillColor=none;strokeColor=none;shadow=0;rounded=0;verticalAlign=middle" vertex="1" parent="1">
          <mxGeometry x="370" y="325.58000000000004" width="20" height="24.42" as="geometry" />
        </mxCell>
        <mxCell id="aHZwfYBZbHW1-M8nTYV0-42" value="" style="verticalLabelPosition=bottom;shadow=0;dashed=0;align=center;html=1;verticalAlign=top;shape=mxgraph.electrical.rot_mech.verticalLabelPosition=bottom;shadow=0;dashed=0;align=center;fillColor=strokeColor;html=1;verticalAlign=top;strokeWidth=1;shape=mxgraph.electrical.rot_mech.rotation;labelBackgroundColor=#ffffff;sketch=0;fontColor=#000000;flipV=0;rotation=-90;" vertex="1" parent="1">
          <mxGeometry x="458.5" y="280" width="83" height="70" as="geometry" />
        </mxCell>
        <mxCell id="aHZwfYBZbHW1-M8nTYV0-46" value="" style="verticalLabelPosition=bottom;shadow=0;dashed=0;align=center;html=1;verticalAlign=top;shape=mxgraph.electrical.rot_mech.verticalLabelPosition=bottom;shadow=0;dashed=0;align=center;fillColor=strokeColor;html=1;verticalAlign=top;strokeWidth=1;shape=mxgraph.electrical.rot_mech.rotation;labelBackgroundColor=#ffffff;sketch=0;fontColor=#000000;flipV=1;flipH=0;rotation=90;" vertex="1" parent="1">
          <mxGeometry x="247" y="280" width="83" height="70" as="geometry" />
        </mxCell>
        <mxCell id="aHZwfYBZbHW1-M8nTYV0-47" value="" style="verticalLabelPosition=bottom;shadow=0;dashed=0;align=center;html=1;verticalAlign=top;shape=mxgraph.electrical.rot_mech.verticalLabelPosition=bottom;shadow=0;dashed=0;align=center;fillColor=strokeColor;html=1;verticalAlign=top;strokeWidth=1;shape=mxgraph.electrical.rot_mech.rotation;labelBackgroundColor=#ffffff;sketch=0;fontColor=#000000;flipV=1;flipH=0;rotation=90;" vertex="1" parent="1">
          <mxGeometry x="358.5" y="110" width="83" height="70" as="geometry" />
        </mxCell>
        <mxCell id="aHZwfYBZbHW1-M8nTYV0-48" value="I1" style="text;html=1;strokeColor=none;fillColor=none;align=center;verticalAlign=middle;whiteSpace=wrap;rounded=0;shadow=0;dashed=0;labelBackgroundColor=#ffffff;sketch=0;fontColor=#000000;" vertex="1" parent="1">
          <mxGeometry x="358.5" y="120" width="70" height="50" as="geometry" />
        </mxCell>
        <mxCell id="aHZwfYBZbHW1-M8nTYV0-50" value="I2" style="text;html=1;strokeColor=none;fillColor=none;align=center;verticalAlign=middle;whiteSpace=wrap;rounded=0;shadow=0;dashed=0;labelBackgroundColor=#ffffff;sketch=0;fontColor=#000000;" vertex="1" parent="1">
          <mxGeometry x="245" y="290" width="70" height="50" as="geometry" />
        </mxCell>
        <mxCell id="aHZwfYBZbHW1-M8nTYV0-51" value="I3" style="text;html=1;strokeColor=none;fillColor=none;align=center;verticalAlign=middle;whiteSpace=wrap;rounded=0;shadow=0;dashed=0;labelBackgroundColor=#ffffff;sketch=0;fontColor=#000000;" vertex="1" parent="1">
          <mxGeometry x="458.5" y="290" width="70" height="50" as="geometry" />
        </mxCell>
      </root>
    </mxGraphModel>
  </diagram>
</mxfile>
